<svg xmlns="http://www.w3.org/2000/svg" xmlns:svg="http://www.w3.org/2000/svg" style="enable-background:new 0 0 24 24" id="Layer_1" width="100%" height="100%" x="0" y="0" version="1.1" viewBox="0 0 24 24" xml:space="preserve"><metadata id="metadata15"/><path style="fill:#333;fill-opacity:1" id="path3" d="M 5.5625,4.5 6.5,6.40625 l -4.9375,0 0,0.09375 0,2 1.59375,0 c 0.6,1.8 1.40625,3.20625 2.40625,4.40625 -1.1,0.7 -4.3125,1.78125 -4.3125,1.78125 L 2.5625,16.5 c 0,0 3.4875,-1.3875 4.6875,-2.1875 1,0.7 2.31875,1.1875 3.71875,1.6875 l 0.59375,-2 c -1,-0.3 -1.9875,-0.6875 -2.6875,-1.1875 1.1,-1.1 1.9,-2.50625 2.5,-4.40625 l 2.1875,0 0.5,-2 -5.5625,0 L 7.5625,4.5 l -2,0 z m 10,2 -4.1875,13 2.1875,0 0.8125,-3 5.28125,0 0.90625,3 2.1875,0 -4.1875,-13 -3,0 z m -10.1875,2 3.78125,0 c -0.4,1.3 -0.90625,2 -1.90625,3 -1.1,-1 -1.475,-1.7 -1.875,-3 z m 11.6875,0 2,6 -4,0 2,-6 z"/></svg>